<mxfile host="app.diagrams.net" agent="Mozilla/5.0 (Macintosh; Intel Mac OS X 10_15_7) AppleWebKit/537.36 (KHTML, like Gecko) Chrome/136.0.0.0 Safari/537.36" version="27.0.9">
  <diagram id="prtHgNgQTEPvFCAcTncT" name="Page-1">
    <mxGraphModel dx="1324" dy="725" grid="1" gridSize="10" guides="1" tooltips="1" connect="1" arrows="1" fold="1" page="1" pageScale="1" pageWidth="827" pageHeight="1169" math="0" shadow="0">
      <root>
        <mxCell id="0" />
        <mxCell id="1" parent="0" />
        <mxCell id="gTzz7au20Yn1j3DlXl7C-3" value="" style="edgeStyle=orthogonalEdgeStyle;rounded=0;orthogonalLoop=1;jettySize=auto;html=1;" edge="1" parent="1" source="gTzz7au20Yn1j3DlXl7C-1" target="gTzz7au20Yn1j3DlXl7C-2">
          <mxGeometry relative="1" as="geometry" />
        </mxCell>
        <mxCell id="gTzz7au20Yn1j3DlXl7C-5" value="" style="edgeStyle=orthogonalEdgeStyle;rounded=0;orthogonalLoop=1;jettySize=auto;html=1;" edge="1" parent="1" source="gTzz7au20Yn1j3DlXl7C-1" target="gTzz7au20Yn1j3DlXl7C-4">
          <mxGeometry relative="1" as="geometry" />
        </mxCell>
        <mxCell id="gTzz7au20Yn1j3DlXl7C-22" value="" style="edgeStyle=orthogonalEdgeStyle;rounded=0;orthogonalLoop=1;jettySize=auto;html=1;" edge="1" parent="1" source="gTzz7au20Yn1j3DlXl7C-1" target="gTzz7au20Yn1j3DlXl7C-21">
          <mxGeometry relative="1" as="geometry" />
        </mxCell>
        <mxCell id="gTzz7au20Yn1j3DlXl7C-1" value="search" style="rounded=1;whiteSpace=wrap;html=1;" vertex="1" parent="1">
          <mxGeometry x="260" y="100" width="120" height="60" as="geometry" />
        </mxCell>
        <mxCell id="gTzz7au20Yn1j3DlXl7C-2" value="history&lt;div&gt;hot keywords&lt;br&gt;&lt;div&gt;recommend&lt;/div&gt;&lt;div&gt;page&lt;/div&gt;&lt;/div&gt;" style="whiteSpace=wrap;html=1;rounded=1;" vertex="1" parent="1">
          <mxGeometry x="100" y="220" width="120" height="60" as="geometry" />
        </mxCell>
        <mxCell id="gTzz7au20Yn1j3DlXl7C-7" value="" style="edgeStyle=orthogonalEdgeStyle;rounded=0;orthogonalLoop=1;jettySize=auto;html=1;" edge="1" parent="1" source="gTzz7au20Yn1j3DlXl7C-4" target="gTzz7au20Yn1j3DlXl7C-6">
          <mxGeometry relative="1" as="geometry" />
        </mxCell>
        <mxCell id="gTzz7au20Yn1j3DlXl7C-9" value="" style="edgeStyle=orthogonalEdgeStyle;rounded=0;orthogonalLoop=1;jettySize=auto;html=1;" edge="1" parent="1" source="gTzz7au20Yn1j3DlXl7C-4" target="gTzz7au20Yn1j3DlXl7C-8">
          <mxGeometry relative="1" as="geometry" />
        </mxCell>
        <mxCell id="gTzz7au20Yn1j3DlXl7C-11" value="" style="edgeStyle=orthogonalEdgeStyle;rounded=0;orthogonalLoop=1;jettySize=auto;html=1;" edge="1" parent="1" source="gTzz7au20Yn1j3DlXl7C-4" target="gTzz7au20Yn1j3DlXl7C-10">
          <mxGeometry relative="1" as="geometry" />
        </mxCell>
        <mxCell id="gTzz7au20Yn1j3DlXl7C-24" value="" style="edgeStyle=orthogonalEdgeStyle;rounded=0;orthogonalLoop=1;jettySize=auto;html=1;" edge="1" parent="1" source="gTzz7au20Yn1j3DlXl7C-4" target="gTzz7au20Yn1j3DlXl7C-23">
          <mxGeometry relative="1" as="geometry" />
        </mxCell>
        <mxCell id="gTzz7au20Yn1j3DlXl7C-26" value="" style="edgeStyle=orthogonalEdgeStyle;rounded=0;orthogonalLoop=1;jettySize=auto;html=1;" edge="1" parent="1" source="gTzz7au20Yn1j3DlXl7C-4" target="gTzz7au20Yn1j3DlXl7C-25">
          <mxGeometry relative="1" as="geometry" />
        </mxCell>
        <mxCell id="gTzz7au20Yn1j3DlXl7C-4" value="search result page" style="whiteSpace=wrap;html=1;rounded=1;" vertex="1" parent="1">
          <mxGeometry x="260" y="340" width="120" height="60" as="geometry" />
        </mxCell>
        <mxCell id="gTzz7au20Yn1j3DlXl7C-6" value="桌搭(如果有)" style="whiteSpace=wrap;html=1;rounded=1;" vertex="1" parent="1">
          <mxGeometry x="40" y="480" width="120" height="60" as="geometry" />
        </mxCell>
        <mxCell id="gTzz7au20Yn1j3DlXl7C-8" value="组件(如果有)" style="whiteSpace=wrap;html=1;rounded=1;" vertex="1" parent="1">
          <mxGeometry x="181" y="480" width="120" height="60" as="geometry" />
        </mxCell>
        <mxCell id="gTzz7au20Yn1j3DlXl7C-10" value="壁纸(如果有)" style="whiteSpace=wrap;html=1;rounded=1;" vertex="1" parent="1">
          <mxGeometry x="330" y="480" width="120" height="60" as="geometry" />
        </mxCell>
        <mxCell id="gTzz7au20Yn1j3DlXl7C-21" value="Empty result page&lt;div&gt;recommend list&lt;/div&gt;" style="whiteSpace=wrap;html=1;rounded=1;" vertex="1" parent="1">
          <mxGeometry x="520" y="230" width="120" height="60" as="geometry" />
        </mxCell>
        <mxCell id="gTzz7au20Yn1j3DlXl7C-23" value="充电动画(如果有)" style="whiteSpace=wrap;html=1;rounded=1;" vertex="1" parent="1">
          <mxGeometry x="470" y="480" width="120" height="60" as="geometry" />
        </mxCell>
        <mxCell id="gTzz7au20Yn1j3DlXl7C-25" value="图标(如果有)" style="whiteSpace=wrap;html=1;rounded=1;" vertex="1" parent="1">
          <mxGeometry x="620" y="480" width="120" height="60" as="geometry" />
        </mxCell>
      </root>
    </mxGraphModel>
  </diagram>
</mxfile>
